<svg xmlns="http://www.w3.org/2000/svg" width="130" height="43" viewBox="0 0 130 43" fill="none">
  <path d="M69.4209 33.2535C69.1432 33.2535 68.8784 33.2498 68.6283 33.2429C68.3773 33.2365 68.1723 33.2296 68.012 33.2222V33.4313C68.2488 33.4382 68.4261 33.4644 68.5445 33.51C68.6628 33.5556 68.7411 33.6395 68.7794 33.7615C68.8176 33.884 68.8374 34.0742 68.8374 34.3326V40.0857C68.8374 40.6651 68.7853 41.1229 68.6808 41.4582C68.5762 41.7935 68.4197 42.0325 68.211 42.1757C68.0024 42.319 67.7486 42.3977 67.4492 42.4116V42.6105C68.1171 42.6105 68.655 42.4479 69.0612 42.1232C69.4688 41.799 69.7346 41.3918 69.8594 40.9027C69.923 40.6651 69.9658 40.3892 69.9897 40.0746C70.0142 39.7605 70.028 39.4358 70.0317 39.1C70.0353 38.7647 70.0372 38.4538 70.0372 38.1678V34.3326C70.0372 34.0742 70.0579 33.884 70.0998 33.7615C70.1417 33.6395 70.221 33.5556 70.3393 33.51C70.4577 33.4644 70.6322 33.4386 70.8616 33.4313V33.2222C70.6949 33.2291 70.4803 33.236 70.22 33.2429C69.9589 33.2498 69.6922 33.2535 69.4209 33.2535Z" fill="white"/>
  <path d="M77.0168 35.3721C76.6548 35.1773 76.2412 35.0796 75.7746 35.0796C75.308 35.0796 74.9018 35.1773 74.5324 35.3721C74.164 35.5669 73.8734 35.8727 73.6615 36.2905C73.4487 36.7078 73.3428 37.254 73.3428 37.9287C73.3428 38.6035 73.4492 39.1483 73.6615 39.5619C73.8734 39.976 74.164 40.2791 74.5324 40.4702C74.9018 40.6613 75.3159 40.7571 75.7746 40.7571C76.2333 40.7571 76.6548 40.6613 77.0168 40.4702C77.3788 40.2791 77.6676 39.976 77.8831 39.5619C78.0987 39.1483 78.2069 38.604 78.2069 37.9287C78.2069 37.2535 78.0987 36.7078 77.8831 36.2905C77.6676 35.8727 77.3788 35.5669 77.0168 35.3721ZM76.6571 39.9378C76.424 40.3449 76.1302 40.5485 75.7751 40.5485C75.42 40.5485 75.1178 40.3449 74.8885 39.9378C74.6591 39.5306 74.5444 38.8614 74.5444 37.9287C74.5444 36.9961 74.6591 36.3236 74.8885 35.9096C75.1178 35.4955 75.4135 35.2887 75.7751 35.2887C76.1366 35.2887 76.424 35.4955 76.6571 35.9096C76.8901 36.3236 77.0066 36.9965 77.0066 37.9287C77.0066 38.861 76.8901 39.5306 76.6571 39.9378Z" fill="white"/>
  <path d="M85.2313 35.1123C85.1309 35.1123 85.0309 35.1105 84.9305 35.1068C84.8311 35.1036 84.7283 35.0999 84.6252 35.0962C84.5216 35.093 84.4087 35.087 84.288 35.0801V35.2947C84.5381 35.309 84.7279 35.3606 84.8559 35.4504C84.9844 35.5393 85.06 35.6715 85.0811 35.847C85.1023 36.0224 85.06 36.2527 84.9526 36.5383L83.9113 39.2994L82.6152 36.1095C82.5079 35.8451 82.4734 35.6577 82.5125 35.5467C82.5517 35.4361 82.6378 35.368 82.77 35.3431C82.9022 35.3182 83.0546 35.3053 83.226 35.3053V35.0801C83.0113 35.0944 82.7806 35.1087 82.5346 35.1234C82.2873 35.1377 82.0432 35.1451 81.8 35.1451C81.5854 35.1451 81.3786 35.14 81.1782 35.1289C80.9779 35.1183 80.7886 35.1022 80.6104 35.0806V35.3058C80.6956 35.3058 80.801 35.3366 80.9263 35.3974C81.0507 35.4582 81.1819 35.6277 81.3169 35.9064L83.365 40.747L83.0542 41.5774C82.9468 41.8699 82.8137 42.0827 82.6567 42.2153C82.4996 42.347 82.3214 42.4134 82.1215 42.4134H82.0681C82.046 42.4134 82.0248 42.4097 82.0041 42.4023C82.1114 42.3526 82.1984 42.2807 82.2666 42.1882C82.3347 42.0947 82.3679 41.9841 82.3679 41.8556C82.3679 41.6695 82.3076 41.5286 82.186 41.4319C82.0644 41.3356 81.9138 41.2873 81.736 41.2873C81.5356 41.2873 81.3749 41.3448 81.2533 41.4586C81.1317 41.5733 81.0714 41.723 81.0714 41.909C81.0714 42.0661 81.1147 42.1983 81.1999 42.3056C81.286 42.4129 81.3943 42.4935 81.5274 42.5465C81.6595 42.5999 81.8005 42.6271 81.9506 42.6271C82.1008 42.6271 82.2647 42.6059 82.4218 42.5631C82.5788 42.5202 82.711 42.4484 82.8183 42.3484C82.9045 42.2697 82.9851 42.1697 83.0597 42.0486C83.1343 41.927 83.208 41.7764 83.2798 41.5982L83.6649 40.5904L85.3381 36.1095C85.4445 35.8239 85.5555 35.6217 85.6698 35.5043C85.7849 35.3859 85.9093 35.3164 86.0451 35.2952V35.0806C85.9378 35.0879 85.8153 35.0948 85.6753 35.1022C85.5362 35.1096 85.3879 35.1133 85.2308 35.1133L85.2313 35.1123Z" fill="white"/>
  <path d="M92.1723 39.7918C92.012 39.9345 91.8429 40.035 91.6661 40.0944C91.4888 40.1538 91.3064 40.1828 91.118 40.1828C90.8748 40.1828 90.6349 40.1013 90.3981 39.9378C90.1614 39.7747 89.9703 39.5292 89.8238 39.2022C89.6782 38.8752 89.6046 38.4718 89.6046 37.9914C89.6046 37.8804 89.6082 37.7671 89.6156 37.6524C89.6211 37.5566 89.6267 37.47 89.6327 37.3862H92.7876C92.7876 36.5862 92.613 36.0022 92.2653 35.6328C91.9176 35.2643 91.4372 35.0796 90.8255 35.0796C90.3452 35.0796 89.9228 35.1962 89.5576 35.4292C89.1919 35.6623 88.9086 35.998 88.7074 36.436C88.5052 36.8745 88.4043 37.4032 88.4043 38.0227C88.4043 38.586 88.5024 39.0733 88.6972 39.4832C88.8911 39.894 89.1698 40.2086 89.5318 40.4278C89.8938 40.6471 90.318 40.7567 90.8057 40.7567C91.1664 40.7567 91.4837 40.6853 91.755 40.5425C92.0263 40.4002 92.2492 40.2137 92.4228 39.9843C92.5974 39.7545 92.7259 39.5219 92.8088 39.2851L92.6011 39.2018C92.4753 39.4523 92.3325 39.649 92.1732 39.7918H92.1723ZM90.7841 35.2887C90.9996 35.2887 91.1737 35.3753 91.3064 35.5494C91.4376 35.724 91.5357 35.9552 91.5984 36.2435C91.661 36.5323 91.6887 36.8473 91.6822 37.1881H89.6151C89.6695 36.5433 89.7985 36.0648 90.0066 35.7636C90.2259 35.4472 90.4852 35.2892 90.7841 35.2892V35.2887Z" fill="white"/>
  <path d="M99.5087 35.2086C99.3623 35.1229 99.1854 35.0801 98.9786 35.0801C98.7354 35.0801 98.5148 35.1427 98.3144 35.2676C98.1146 35.3924 97.9432 35.5513 97.8009 35.7438C97.6581 35.9368 97.5434 36.1367 97.4582 36.343V35.1119C97.2795 35.1621 97.0852 35.1994 96.8747 35.2243C96.6642 35.2496 96.4376 35.262 96.1944 35.262C95.9803 35.262 95.7592 35.251 95.5303 35.2293V35.4541C95.8306 35.4541 96.0337 35.531 96.1405 35.6848C96.2478 35.8382 96.3013 36.0759 96.3013 36.3964V39.7586C96.3013 40.0585 96.2419 40.262 96.1244 40.3689C96.007 40.4762 95.8089 40.5296 95.5303 40.5296V40.7544C95.6661 40.747 95.8623 40.7383 96.1198 40.7277C96.3763 40.7171 96.6333 40.7116 96.8908 40.7116C97.2256 40.7116 97.5453 40.7171 97.8483 40.7277C98.1514 40.7383 98.3858 40.7475 98.5498 40.7544V40.5296C98.2071 40.5296 97.9395 40.4707 97.747 40.3532C97.5545 40.2349 97.4582 40.0018 97.4582 39.6513V37.1886C97.4582 37.0104 97.49 36.8174 97.555 36.6101C97.619 36.4029 97.7079 36.209 97.8221 36.0266C97.9368 35.8447 98.0754 35.6945 98.2403 35.5771C98.4038 35.4596 98.583 35.3965 98.7759 35.3896C98.8754 35.3822 98.9606 35.4076 99.0325 35.4647C98.9252 35.5287 98.8308 35.6162 98.7492 35.7268C98.6668 35.8378 98.6258 35.9718 98.6258 36.1284C98.6258 36.314 98.688 36.4605 98.8132 36.5673C98.9376 36.6742 99.0896 36.7276 99.2678 36.7276C99.4755 36.7276 99.6409 36.6544 99.7662 36.5079C99.8905 36.3619 99.9536 36.185 99.9536 35.9778C99.9536 35.8138 99.9154 35.666 99.8408 35.5333C99.7662 35.4011 99.6552 35.2929 99.5087 35.2072V35.2086Z" fill="white"/>
  <path d="M104.732 33.6606C104.945 33.4865 105.128 33.3369 105.281 33.2116C105.433 33.0868 105.566 32.9541 105.677 32.8155C105.781 32.6759 105.828 32.5442 105.818 32.4189C105.807 32.2937 105.757 32.1928 105.666 32.1163C105.568 32.033 105.452 31.9998 105.317 32.0169C105.181 32.0339 105.061 32.1126 104.957 32.2517C104.853 32.3835 104.759 32.5405 104.676 32.7211C104.592 32.9021 104.491 33.1158 104.373 33.3631C104.254 33.6104 104.087 33.9107 103.872 34.2658L103.987 34.3593C104.272 34.0673 104.52 33.8343 104.733 33.6606H104.732Z" fill="white"/>
  <path d="M104.565 39.7531V35.0797C104.384 35.1303 104.189 35.1676 103.978 35.1925C103.766 35.2178 103.538 35.2307 103.294 35.2307C103.078 35.2307 102.856 35.2197 102.626 35.198V35.4242C102.928 35.4242 103.132 35.5016 103.24 35.6558C103.348 35.8101 103.402 36.0487 103.402 36.3716V39.7531C103.402 40.0548 103.342 40.2593 103.224 40.3671C103.105 40.4748 102.906 40.5287 102.626 40.5287V40.7549C102.756 40.7475 102.953 40.7383 103.219 40.7282C103.485 40.7176 103.742 40.7116 103.995 40.7116C104.261 40.7116 104.52 40.7176 104.775 40.7282C105.03 40.7387 105.219 40.748 105.341 40.7549V40.5287C105.061 40.5287 104.862 40.4748 104.743 40.3671C104.624 40.2593 104.565 40.0548 104.565 39.7531H104.565Z" fill="white"/>
  <path d="M113.419 40.1943C113.327 40.2648 113.248 40.3177 113.18 40.3532C113.113 40.3887 113.044 40.4062 112.974 40.4062C112.868 40.4062 112.792 40.3689 112.746 40.2952C112.7 40.221 112.677 40.0957 112.677 39.9189V36.9965C112.677 36.6507 112.648 36.3554 112.593 36.1122C112.536 35.8686 112.42 35.6655 112.243 35.5029C112.095 35.3551 111.91 35.2473 111.687 35.1805C111.465 35.1133 111.202 35.0796 110.898 35.0796C110.574 35.0796 110.279 35.1183 110.013 35.1962C109.749 35.274 109.532 35.3693 109.363 35.4822C109.207 35.5876 109.082 35.7009 108.987 35.8207C108.892 35.9409 108.845 36.0961 108.845 36.2868C108.845 36.4775 108.898 36.6309 109.003 36.7686C109.108 36.9063 109.271 36.9754 109.49 36.9754C109.687 36.9754 109.852 36.9192 109.983 36.8059C110.113 36.693 110.178 36.5378 110.178 36.3398C110.178 36.156 110.127 36.0026 110.025 35.8792C109.922 35.7558 109.793 35.6729 109.638 35.6305C109.744 35.4965 109.889 35.4062 110.072 35.3606C110.256 35.3145 110.429 35.292 110.591 35.292C110.782 35.292 110.946 35.3237 111.084 35.3868C111.221 35.4504 111.331 35.5582 111.412 35.7097C111.493 35.8617 111.533 36.0643 111.533 36.3186V37.0385C111.533 37.201 111.462 37.3318 111.317 37.4299C111.172 37.5294 110.989 37.6156 110.766 37.6897C110.544 37.7639 110.307 37.8417 110.056 37.9223C109.806 38.0038 109.569 38.1042 109.347 38.224C109.124 38.3442 108.943 38.5012 108.802 38.6951C108.66 38.8895 108.59 39.1419 108.59 39.4523C108.59 39.7066 108.643 39.9322 108.749 40.1303C108.855 40.3279 109.014 40.4831 109.225 40.5964C109.436 40.7088 109.691 40.7659 109.987 40.7659C110.326 40.7659 110.623 40.6885 110.877 40.5328C111.131 40.3776 111.35 40.1515 111.533 39.8553C111.533 40.0529 111.567 40.2187 111.635 40.3528C111.702 40.4868 111.806 40.5895 111.947 40.66C112.088 40.7304 112.272 40.7659 112.498 40.7659C112.724 40.7659 112.922 40.7304 113.075 40.66C113.226 40.5895 113.377 40.4941 113.525 40.3739L113.419 40.1943H113.419ZM111.534 39.5804C111.386 39.806 111.225 39.976 111.052 40.0884C110.879 40.2012 110.693 40.2579 110.497 40.2579C110.256 40.2579 110.065 40.1782 109.924 40.0198C109.783 39.8609 109.712 39.6435 109.712 39.3685C109.712 39.1074 109.762 38.8923 109.861 38.7223C109.959 38.5528 110.085 38.4137 110.236 38.3041C110.388 38.195 110.549 38.0978 110.719 38.013C110.888 37.9283 111.047 37.8449 111.194 37.7643C111.343 37.6828 111.456 37.5861 111.533 37.4728V39.5804H111.534Z" fill="white"/>
  <path d="M127.517 21.6217C126.418 20.8175 125.458 20.2856 124.771 19.9438C124.771 19.9438 123.087 19.0927 121.886 18.154C121.273 17.6741 120.968 17.0786 120.968 16.3698C120.968 15.532 121.19 14.8895 121.637 14.4515C122.083 14.0088 122.743 13.7901 123.619 13.7901C125.259 13.7901 126.633 14.6186 127.734 16.2698C128.255 17.045 128.652 17.8827 128.919 18.7827C129.279 18.7818 129.639 18.7809 129.999 18.7799C130 16.8543 130 14.9277 130 13.0011C129.784 13.002 129.569 13.003 129.353 13.0039C129.168 13.2203 128.973 13.44 128.767 13.662C128.398 14.0591 128.031 14.4229 127.674 14.7564C127.36 14.4372 126.955 14.1332 126.457 13.8569C125.439 13.2765 124.281 12.9859 122.996 12.9859C118.212 12.9859 115.82 14.5422 115.82 17.6543C115.82 18.516 116.054 19.2686 116.52 19.9107C116.99 20.5578 117.552 21.0952 118.207 21.5379C118.238 21.5586 118.27 21.5798 118.302 21.601C119.402 22.4051 120.361 22.9371 121.048 23.2788C121.048 23.2788 122.733 24.13 123.933 25.0686C124.547 25.5485 124.851 26.1441 124.851 26.8529C124.851 27.6907 124.63 28.3332 124.182 28.7712C123.736 29.2138 123.077 29.4326 122.201 29.4326C120.56 29.4326 119.186 28.604 118.085 26.9528C117.564 26.1777 117.167 25.3399 116.9 24.4399C116.54 24.4409 116.18 24.4418 115.82 24.4427C115.819 26.3684 115.819 28.2949 115.819 30.2215C116.035 30.2206 116.25 30.2197 116.466 30.2188C116.652 30.0023 116.846 29.7826 117.053 29.5606C117.421 29.1636 117.788 28.7997 118.145 28.4663C118.459 28.7855 118.864 29.0894 119.362 29.3658C120.38 29.9461 121.538 30.2367 122.823 30.2367C127.607 30.2367 130 28.6804 130 25.5683C130 24.7066 129.765 23.954 129.299 23.312C129.24 23.2305 129.038 22.9371 128.666 22.5617C128.406 22.2992 128.029 21.9602 127.517 21.6217Z" fill="white"/>
  <path d="M64.8975 28.7472C64.874 28.534 64.8639 28.3341 64.8524 28.1098C64.827 27.6101 64.8257 27.1974 64.8293 26.9109C64.8293 24.7858 64.8293 22.6612 64.8289 20.5361C63.7668 17.8252 62.7162 15.1096 61.6776 12.3904C60.1043 8.27054 58.5577 4.14056 57.0383 0H56.7007C53.5043 7.6133 50.2987 15.2358 47.0977 22.8491C46.3023 24.7444 45.5064 26.635 44.711 28.5303C44.4614 29.0973 44.2067 29.6647 43.957 30.2321C44.0588 30.2381 44.2016 30.2409 44.3711 30.2257C44.3711 30.2257 44.7004 30.1957 45.0025 30.0939C45.3894 29.9631 46.0734 29.3547 46.5938 28.3368C46.5938 28.3368 46.5984 28.3322 46.5984 28.3276L46.8481 27.7326L49.4383 21.5581H59.4342C59.9666 22.9458 60.7468 24.8802 61.6178 26.6811C61.6178 26.6811 61.9056 27.2757 62.4311 28.0702C63.5268 29.7259 64.2085 30.023 64.5751 30.1308C64.8524 30.2123 65.0933 30.228 65.2489 30.2289C65.0251 29.6122 64.9362 29.1019 64.8975 28.7468V28.7472ZM49.8874 20.4928L54.4531 9.63291L59.0045 20.4928H49.8874Z" fill="white"/>
  <path d="M96.8026 13.989C96.2296 13.4635 95.3656 13.1964 94.2146 13.1964C92.8702 13.1964 91.6548 13.6298 90.5733 14.4961C90.0925 14.8835 89.6955 15.3164 89.3671 15.7913C89.3017 15.608 89.2004 15.3786 89.0419 15.135C88.8955 14.9097 88.7412 14.7347 88.6094 14.6053C88.3824 14.3801 88.0973 14.141 87.7445 13.925C86.5944 13.2203 85.4232 13.1858 84.8281 13.2148C84.8281 13.2627 84.8286 13.3102 84.829 13.3581V25.7065C84.829 25.7848 84.829 25.8631 84.8337 25.9414C84.9078 27.4903 85.7258 28.8361 86.9224 29.5873C87.5741 30.0023 88.3409 30.2372 89.1589 30.2372H89.8705V18.6031C89.8705 18.5478 89.8705 18.4925 89.8659 18.4419C89.8659 18.3866 89.8613 18.3313 89.8613 18.2807C89.8613 18.2669 89.8613 18.2484 89.8567 18.2346V16.6028C90.1155 16.174 90.4619 15.7411 90.8967 15.3077C91.8068 14.4413 92.8191 14.0079 93.9236 14.0079V18.5529L94.3118 18.6496C94.6167 18.6911 94.9216 18.7141 95.2265 18.7141C95.9616 18.7141 96.553 18.493 96.9965 18.0504C97.4446 17.6078 97.6666 17.0178 97.6666 16.2804C97.6666 15.2846 97.3756 14.5242 96.8026 13.9895V13.989Z" fill="white"/>
  <path d="M113.543 18.4971C113.55 20.3509 113.544 28.2534 113.543 30.1952H113.315C113.264 30.1952 113.195 30.1998 113.121 30.1998C112.662 30.1998 111.804 30.1441 110.946 29.7503C110.529 29.5601 110.116 29.2911 109.746 28.9111C109.467 28.6284 109.259 28.3271 109.105 28.0443C109.045 27.9472 108.985 27.8311 108.925 27.7058C108.679 28.0955 108.41 28.457 108.104 28.7767C107.714 29.1663 107.288 29.4767 106.819 29.7089C106.073 30.075 105.438 30.1261 104.571 30.2003C104.121 30.2376 103.499 30.2606 102.758 30.2003C100.43 30.2003 98.5338 28.2898 98.4177 25.8787C98.4131 25.8 98.4131 25.7212 98.4131 25.6425V13.1931C99.3729 13.1931 100.268 13.4759 101.033 13.9674C101.283 14.1018 101.636 14.3289 101.988 14.6909C102.039 14.742 102.146 14.8622 102.289 15.0386C103.39 16.3881 103.462 18.1176 103.462 18.1176C103.472 18.2811 103.472 18.4147 103.472 18.4976V25.2394C103.472 25.3182 103.472 25.397 103.476 25.4757C103.531 26.57 103.764 27.423 104.181 28.0397C104.649 28.7444 105.201 29.0968 105.836 29.0968C106.61 29.0968 107.315 28.6749 107.946 27.8357C108.15 27.5575 108.363 27.1914 108.581 26.7506C108.556 26.6866 108.531 26.6083 108.513 26.5171C108.493 26.4153 108.488 26.3241 108.488 26.25V15.3583C108.489 15.0294 108.49 14.6255 108.49 14.2967C108.491 13.9494 108.491 13.5445 108.492 13.1977C108.607 13.1941 108.761 13.1922 108.944 13.1996C108.944 13.1996 109.175 13.2088 109.375 13.2314C109.782 13.2774 110.523 13.5399 111.222 14.0254C111.399 14.1484 111.718 14.386 112.059 14.7462C112.19 14.8853 112.291 15.0069 112.36 15.0939C112.708 15.5342 113.419 16.6101 113.528 18.1263C113.541 18.3073 113.542 18.4414 113.542 18.4971H113.543Z" fill="white"/>
  <path d="M82.4216 18.4557V30.1953H82.1936C82.1425 30.1953 82.073 30.1999 81.9984 30.1999C81.5378 30.1999 80.677 30.1442 79.8162 29.7485C79.3975 29.5579 78.9834 29.288 78.6113 28.9061C78.3322 28.6224 78.1226 28.3198 77.9688 28.0361C77.9085 27.9385 77.8481 27.822 77.7873 27.6967C77.5405 28.0877 77.2706 28.4502 76.9638 28.7717C76.5728 29.1627 76.1449 29.474 75.6751 29.7071C74.9262 30.0746 74.2883 30.1257 73.4183 30.2004C72.967 30.2377 72.3433 30.2607 71.5991 30.2004C69.2635 30.2004 67.3604 28.2835 67.2439 25.8641C67.2393 25.7848 67.2393 25.7061 67.2393 25.6269V13.1338C68.2028 13.1338 69.1004 13.4175 69.8682 13.9108C70.1197 14.0457 70.473 14.2737 70.8267 14.6366C70.8778 14.6878 70.9851 14.8089 71.1293 14.9857C71.8086 15.8281 72.2365 16.9027 72.3065 18.0753C72.3065 18.1264 72.3111 18.1821 72.3111 18.2383V18.2941C72.3157 18.3452 72.3157 18.4009 72.3157 18.4571V25.2225C72.3157 25.3017 72.3157 25.3809 72.3203 25.4597C72.376 26.5577 72.6086 27.4139 73.0278 28.0329C73.4975 28.7403 74.0512 29.0936 74.6886 29.0936C75.4656 29.0936 76.173 28.6703 76.8054 27.8279C77.0099 27.5488 77.224 27.1813 77.4428 26.7391C77.4009 26.5623 77.3687 26.39 77.3498 26.2367V15.3068C77.3498 14.5947 77.3544 13.8877 77.3544 13.1757C77.5405 13.1757 77.7265 13.1711 77.9126 13.1711C78.7034 13.2595 79.4385 13.5432 80.0805 13.9762C80.3877 14.1807 80.6761 14.4229 80.9321 14.6928C81.039 14.8043 81.1417 14.9162 81.2347 15.0419C81.9049 15.8746 82.3332 16.9312 82.4074 18.0849C82.412 18.0988 82.412 18.1177 82.412 18.1315C82.412 18.1826 82.4166 18.2383 82.4166 18.2945C82.4212 18.3456 82.4212 18.4014 82.4212 18.4576L82.4216 18.4557Z" fill="white"/>
  <path d="M14.9655 1.991L27.2963 14.3218C27.3742 14.3997 27.4527 14.4782 27.5349 14.5519C28.003 14.9745 28.5171 15.3236 29.0588 15.5905L29.898 15.9358C29.9023 15.9401 29.9115 15.9408 29.9115 15.9408C31.0029 16.3002 32.1537 16.3622 33.2347 16.1168C33.3494 16.0941 33.4635 16.0622 33.5782 16.0303C34.5033 15.7665 35.3732 15.2733 36.0959 14.5506L36.8002 13.8464L25.2086 2.2548C25.1534 2.19958 25.0982 2.14437 25.0436 2.09836C24.9884 2.04315 24.9289 1.99284 24.8779 1.94254C24.8644 1.92904 24.846 1.91064 24.8276 1.90082C23.6154 0.835221 22.1523 0.213161 20.6714 0.0499771C20.456 0.017463 20.245 0.00764814 20.0297 0.00274036C19.5119 -0.011983 18.9892 0.0328002 18.4856 0.132796C17.3954 0.341377 16.3605 0.807002 15.4771 1.53397C15.2986 1.67568 15.1293 1.82659 14.9648 1.991H14.9655Z" fill="white"/>
  <path d="M1.98574 24.9582L14.357 12.5869C14.4356 12.5083 14.5135 12.4304 14.5877 12.3476C15.0116 11.8777 15.3625 11.3624 15.6306 10.8195L15.9778 9.97777C15.9827 9.97286 15.9827 9.96427 15.9827 9.96427C16.3447 8.87045 16.4085 7.71774 16.1649 6.63496C16.1422 6.52024 16.1103 6.40552 16.079 6.2908C15.8165 5.36446 15.3232 4.49394 14.6012 3.77127L13.8969 3.067L2.26733 14.6966C2.21212 14.7518 2.1569 14.807 2.11028 14.8622C2.05507 14.9174 2.00415 14.9776 1.95384 15.0285C1.93973 15.0426 1.92133 15.061 1.91213 15.0788C0.842846 16.2947 0.217716 17.7615 0.0514654 19.2449C0.0189513 19.4608 0.00852366 19.6719 0.0030024 19.8878C-0.0123344 20.4068 0.0312194 20.9295 0.130602 21.4344C0.337956 22.5263 0.802357 23.5619 1.52932 24.4453C1.67103 24.6238 1.82195 24.7931 1.98636 24.9575L1.98574 24.9582Z" fill="white"/>
  <path d="M37.8421 14.9488L25.4984 27.2925C25.4199 27.371 25.342 27.4489 25.2684 27.5311C24.8451 27.9998 24.4942 28.5133 24.2255 29.0538L23.8764 29.8911C23.8715 29.8961 23.8715 29.9046 23.8715 29.9046C23.5071 30.9929 23.4384 32.1383 23.6758 33.2119C23.6979 33.3254 23.7286 33.4395 23.7599 33.553C24.0169 34.4719 24.5022 35.3345 25.2169 36.0486L25.9132 36.7449L37.517 25.141C37.5722 25.0858 37.6274 25.0306 37.6734 24.976C37.7286 24.9208 37.7789 24.8607 37.8299 24.8104C37.844 24.7963 37.8624 24.7778 37.8716 24.7601C38.939 23.5472 39.5666 22.0878 39.7384 20.6136C39.7721 20.3989 39.7831 20.1891 39.7893 19.975C39.8071 19.4597 39.766 18.94 39.6697 18.4395C39.4691 17.3561 39.012 16.3291 38.2942 15.4549C38.1544 15.2782 38.0053 15.1108 37.8427 14.9482L37.8421 14.9488Z" fill="white"/>
  <path d="M3.04492 26.0047L15.3266 38.2864C15.4046 38.3644 15.4825 38.4423 15.5647 38.5153C16.0309 38.9361 16.5438 39.2839 17.0836 39.549L17.921 39.8919C17.9253 39.8962 17.9345 39.8968 17.9345 39.8968C19.0228 40.2538 20.1712 40.3127 21.2509 40.0661C21.3651 40.0434 21.4798 40.0109 21.5939 39.979C22.5178 39.714 23.3871 39.2195 24.1097 38.4975L24.814 37.7932L13.2691 26.2483C13.2145 26.1937 13.1592 26.1385 13.1046 26.0925C13.05 26.0379 12.9899 25.9875 12.9396 25.9372C12.9261 25.9237 12.9077 25.9053 12.8893 25.8961C11.6814 24.8348 10.2225 24.2177 8.74531 24.0576C8.52998 24.0257 8.32017 24.0165 8.10484 24.0116C7.58768 23.9981 7.06685 24.0435 6.56319 24.1441C5.47428 24.3545 4.44057 24.8213 3.55778 25.5483C3.37988 25.69 3.21056 25.8409 3.04554 26.0053L3.04492 26.0047Z" fill="white"/>
</svg>