<svg xmlns="http://www.w3.org/2000/svg" width="192" height="51" viewBox="0 0 192 51" fill="none">
  <path d="M191.254 12.9217C191.377 12.8514 191.5 12.8339 191.623 12.869C191.764 12.9042 191.869 12.9832 191.939 13.1062C192.01 13.2293 192.019 13.3611 191.966 13.5016C191.228 16.0849 190.49 19.0987 189.752 22.543C189.277 24.722 188.882 26.4794 188.565 27.8149C188.495 28.0609 188.328 28.1839 188.065 28.1839C188.029 28.1839 187.986 28.1839 187.933 28.1839C187.81 28.1488 187.704 28.0697 187.617 27.9467C187.546 27.8237 187.529 27.7007 187.564 27.5777C187.898 26.2421 188.302 24.4848 188.776 22.3058C189.514 18.8614 190.252 15.8301 190.991 13.2117C191.043 13.0887 191.131 12.992 191.254 12.9217ZM187.406 29.5546C187.792 29.4316 188.029 29.5195 188.117 29.8182C188.223 30.1346 188.109 30.363 187.775 30.5036C187.634 30.5563 187.476 30.5827 187.3 30.5827C187.089 30.5651 186.957 30.4772 186.905 30.3191C186.87 30.1785 186.905 30.0203 187.01 29.8446C187.116 29.6864 187.247 29.5898 187.406 29.5546Z" fill="white"/>
  <path d="M186.485 21.0933C186.625 21.0582 186.748 21.0846 186.854 21.1724C186.977 21.2427 187.047 21.3481 187.065 21.4887C187.082 21.6293 187.056 21.7523 186.986 21.8578C185 24.6343 183.19 26.6025 181.556 27.7623C180.905 28.2192 180.264 28.4477 179.631 28.4477C179.139 28.4477 178.709 28.3159 178.34 28.0523C178.129 27.8941 177.944 27.6832 177.786 27.4196C177.61 27.156 177.461 26.787 177.338 26.3125C177.215 25.8381 177.198 25.2142 177.285 24.441C177.356 23.6678 177.549 22.7891 177.865 21.805V21.7787C178.357 20.1795 178.955 18.9143 179.658 17.9829C180.361 17.0515 180.993 16.5771 181.556 16.5595C181.96 16.5419 182.223 16.7176 182.346 17.0867C182.54 17.5963 182.311 18.3168 181.661 19.2482C181.011 20.1795 180.053 21.1812 178.788 22.2532C178.577 22.9385 178.428 23.5711 178.34 24.1511C178.252 24.731 178.217 25.1967 178.234 25.5481C178.269 25.882 178.331 26.1807 178.419 26.4443C178.524 26.6904 178.612 26.8661 178.682 26.9715C178.77 27.077 178.858 27.1648 178.946 27.2351C179.473 27.6217 180.15 27.5163 180.976 26.9188C182.522 25.8293 184.244 23.949 186.142 21.2779C186.23 21.1724 186.344 21.1109 186.485 21.0933ZM181.371 17.6666C180.756 18.0532 180.15 18.8879 179.552 20.1708C180.572 19.1515 181.178 18.3168 181.371 17.6666Z" fill="white"/>
  <path d="M181.677 2.35147C182.046 2.89623 181.862 4.18785 181.124 6.22633C180.403 8.24723 179.226 10.5581 177.592 13.1589C177.574 13.1765 177.556 13.1941 177.539 13.2116C176.432 17.64 175.369 22.253 174.349 27.0504C173.348 31.8654 172.706 35.2922 172.425 37.3307C172.443 37.3307 172.46 37.3307 172.478 37.3307C172.618 37.3834 172.724 37.4712 172.794 37.5943C172.847 37.7173 172.847 37.8491 172.794 37.9896C172.689 38.2884 172.61 38.5081 172.557 38.6486C172.487 38.8068 172.39 38.9562 172.267 39.0968C172.144 39.2373 172.012 39.3076 171.872 39.3076C171.819 39.3076 171.757 39.2988 171.687 39.2813C171.441 39.1934 171.309 38.9474 171.292 38.5432C171.274 38.1566 171.397 37.1901 171.661 35.6436C171.977 33.7458 172.452 31.268 173.084 28.2102C174.543 21.2513 175.992 15.048 177.433 9.60036C177.556 9.14346 177.688 8.66899 177.829 8.17694C177.969 7.66732 178.172 7.03469 178.435 6.27905C178.699 5.52341 178.954 4.86442 179.2 4.30208C179.463 3.72217 179.753 3.21255 180.069 2.77322C180.386 2.31632 180.685 2.0703 180.966 2.03515C181.264 1.98243 181.502 2.08787 181.677 2.35147ZM178.461 9.67944C179.867 7.0259 180.658 4.9435 180.834 3.43221C180.061 4.59203 179.27 6.67444 178.461 9.67944Z" fill="white"/>
  <path d="M174.743 20.9878C174.884 20.9527 175.015 20.9702 175.138 21.0405C175.261 21.1108 175.332 21.2163 175.349 21.3569C175.384 21.4974 175.367 21.6292 175.297 21.7522C174.805 22.5255 174.207 23.3338 173.504 24.1773C172.819 25.0033 172.037 25.7501 171.158 26.4179C170.297 27.0857 169.568 27.4196 168.97 27.4196C168.759 27.4196 168.575 27.3844 168.417 27.3141C167.239 26.8045 167.116 24.7397 168.048 21.1196C168.083 20.979 168.162 20.8736 168.285 20.8033C168.408 20.733 168.531 20.7154 168.654 20.7506C168.795 20.7857 168.9 20.8648 168.97 20.9878C169.041 21.1108 169.058 21.2338 169.023 21.3569C168.812 22.2004 168.654 22.9472 168.549 23.5974C168.461 24.2301 168.417 24.7133 168.417 25.0472C168.434 25.3811 168.469 25.6623 168.522 25.8907C168.592 26.1016 168.645 26.2334 168.68 26.2861C168.733 26.3212 168.777 26.3476 168.812 26.3652C169.269 26.5585 170.095 26.1016 171.29 24.9945C172.502 23.8874 173.548 22.6221 174.427 21.1987C174.515 21.0933 174.62 21.023 174.743 20.9878ZM168.918 18.9318C168.408 18.8966 168.25 18.6857 168.443 18.2991C168.619 17.9828 168.847 17.7719 169.128 17.6665C169.568 17.5259 169.831 17.6402 169.919 18.0092C170.007 18.3606 169.875 18.6242 169.524 18.8C169.348 18.8878 169.146 18.9318 168.918 18.9318Z" fill="white"/>
  <path d="M168.163 20.9613C168.304 20.9262 168.427 20.9438 168.532 21.0141C168.655 21.0844 168.734 21.1898 168.769 21.3304C168.804 21.471 168.787 21.6028 168.717 21.7258C168.137 22.6571 167.583 23.4919 167.056 24.2299C166.529 24.9504 166.072 25.5391 165.685 25.996C165.316 26.4354 164.956 26.8044 164.604 27.1031C164.253 27.4194 163.972 27.6391 163.761 27.7621C163.55 27.9027 163.339 27.9906 163.128 28.0257C162.917 28.0784 162.768 28.096 162.68 28.0784C162.61 28.0784 162.522 28.0697 162.417 28.0521C161.591 27.8412 161.125 26.901 161.02 25.2316C161.002 24.8626 160.958 24.555 160.888 24.309C160.817 24.0454 160.756 23.8785 160.703 23.8082C160.651 23.7203 160.607 23.6764 160.571 23.6764C160.554 23.6764 160.545 23.6764 160.545 23.6764C160.405 23.6764 160.211 23.7906 159.965 24.0191C159.719 24.2299 159.42 24.5814 159.069 25.0734C158.717 25.5655 158.348 26.163 157.962 26.8659C157.575 27.5688 157.145 28.4563 156.67 29.5282C156.213 30.6002 155.765 31.76 155.326 33.0077C155.256 33.2361 155.097 33.3504 154.851 33.3504C154.816 33.3504 154.781 33.3504 154.746 33.3504C154.658 33.3328 154.588 33.2976 154.535 33.2449C154.465 33.1922 154.412 33.1219 154.377 33.034C154.342 32.9638 154.333 32.8935 154.351 32.8232C154.386 32.1027 154.851 29.7918 155.748 25.8906C156.626 21.9718 157.347 18.8262 157.909 16.4539C158.489 14.0639 158.937 12.2363 159.253 10.9711C159.851 8.54597 160.536 6.48114 161.31 4.77655C162.1 3.05439 162.777 2.14059 163.339 2.03515C163.638 1.98243 163.866 2.0703 164.025 2.29875C164.411 2.82594 164.183 4.18785 163.339 6.38449C162.513 8.58112 161.222 11.2698 159.464 14.4505C158.111 20.0212 157.066 24.4935 156.328 27.8676C157.101 26.2333 157.865 24.9416 158.621 23.9927C159.376 23.0262 160.071 22.5869 160.703 22.6747C161.494 22.7802 161.933 23.6061 162.021 25.1525C162.109 26.3299 162.32 26.9625 162.654 27.0504C162.707 27.068 162.777 27.068 162.865 27.0504C162.97 27.0328 163.172 26.9274 163.471 26.7341C163.77 26.5408 164.095 26.2596 164.446 25.8906C164.798 25.504 165.272 24.9065 165.87 24.0981C166.485 23.2898 167.144 22.3145 167.847 21.1722C167.917 21.0668 168.022 20.9965 168.163 20.9613ZM163.155 3.51129C162.188 4.89956 161.283 7.19285 160.44 10.3911C161.986 7.28071 162.891 4.98743 163.155 3.51129Z" fill="white"/>
  <path d="M156.967 20.8824C157.108 20.8297 157.24 20.8384 157.363 20.9087C157.503 20.9615 157.591 21.0581 157.626 21.1987C157.679 21.3217 157.679 21.4447 157.626 21.5677C155.869 25.3284 154.121 28.5267 152.381 31.1626C150.641 33.7986 148.963 35.7931 147.346 37.1463C145.747 38.4994 144.262 39.1759 142.891 39.1759C142.487 39.1759 142.092 39.1144 141.705 38.9914C140.457 38.6048 139.447 37.6207 138.674 36.0392C137.918 34.4751 137.47 32.4894 137.329 30.0819C137.189 27.6919 137.356 24.9681 137.83 21.9104C138.34 18.7121 139.21 15.4084 140.44 11.9992C141.881 7.99254 143.445 4.97875 145.132 2.95785C146.503 1.32356 147.68 0.743645 148.664 1.21812C149.349 1.55201 149.806 2.35158 150.035 3.61684C150.281 4.86453 150.325 6.43732 150.167 8.33521C150.008 10.2331 149.771 12.1398 149.455 14.0552C149.139 15.9531 148.734 18.0092 148.242 20.2234C148.207 20.3464 148.128 20.4518 148.005 20.5397C147.882 20.61 147.75 20.6276 147.61 20.5924C147.487 20.5573 147.381 20.487 147.293 20.3815C147.223 20.2585 147.206 20.1267 147.241 19.9862C147.768 17.6314 148.19 15.4787 148.506 13.5281C148.822 11.5599 149.024 9.91679 149.112 8.59881C149.218 7.28083 149.244 6.14736 149.191 5.19842C149.139 4.24947 149.024 3.53776 148.849 3.06329C148.69 2.57124 148.48 2.26372 148.216 2.1407C147.97 2.01769 147.645 2.08799 147.241 2.35158C146.836 2.61518 146.397 3.02814 145.923 3.59048C144.359 5.4708 142.918 8.2122 141.6 11.8147C140.282 15.3996 139.359 18.8175 138.832 22.0686C138.129 26.3915 138.103 30.0555 138.753 33.0605C139.052 34.4312 139.482 35.5383 140.044 36.3818C140.607 37.2429 141.266 37.7877 142.021 38.0161C143.691 38.5433 145.703 37.5768 148.058 35.1166C150.834 32.217 153.716 27.5601 156.704 21.146C156.756 21.023 156.844 20.9351 156.967 20.8824Z" fill="white"/>
  <path d="M128.771 21.0933C128.912 21.0582 129.035 21.0846 129.14 21.1724C129.263 21.2427 129.333 21.3481 129.351 21.4887C129.369 21.6293 129.342 21.7523 129.272 21.8578C127.286 24.6343 125.476 26.6025 123.842 27.7623C123.192 28.2192 122.55 28.4477 121.918 28.4477C121.425 28.4477 120.995 28.3159 120.626 28.0523C120.415 27.8941 120.231 27.6832 120.072 27.4196C119.897 27.156 119.747 26.787 119.624 26.3125C119.501 25.8381 119.484 25.2142 119.572 24.441C119.642 23.6678 119.835 22.7891 120.151 21.805V21.7787C120.643 20.1795 121.241 18.9143 121.944 17.9829C122.647 17.0515 123.279 16.5771 123.842 16.5595C124.246 16.5419 124.51 16.7176 124.633 17.0867C124.826 17.5963 124.597 18.3168 123.947 19.2482C123.297 20.1795 122.339 21.1812 121.074 22.2532C120.863 22.9385 120.714 23.5711 120.626 24.1511C120.538 24.731 120.503 25.1967 120.52 25.5481C120.556 25.882 120.617 26.1807 120.705 26.4443C120.81 26.6904 120.898 26.8661 120.969 26.9715C121.056 27.077 121.144 27.1648 121.232 27.2351C121.759 27.6217 122.436 27.5163 123.262 26.9188C124.808 25.8293 126.53 23.949 128.428 21.2779C128.516 21.1724 128.63 21.1109 128.771 21.0933ZM123.657 17.6666C123.042 18.0532 122.436 18.8879 121.838 20.1708C122.858 19.1515 123.464 18.3168 123.657 17.6666Z" fill="white"/>
  <path d="M123.222 5.04029C123.679 5.49719 123.45 7.11391 122.537 9.89045C122.466 10.1013 122.37 10.3913 122.247 10.7603C121.86 11.9377 121.544 12.8779 121.298 13.5808C121.052 14.2837 120.665 15.2678 120.138 16.5331C119.611 17.7983 119.04 19.0109 118.425 20.1707C117.915 22.5958 117.432 25.179 116.975 27.9204C116.184 32.6124 115.762 35.7932 115.709 37.4626C115.85 37.4099 115.991 37.4099 116.131 37.4626C116.254 37.5329 116.333 37.6295 116.368 37.7526C116.421 37.8931 116.421 38.0249 116.368 38.1479C116.052 38.8157 115.736 39.1496 115.42 39.1496C115.349 39.1496 115.279 39.1408 115.209 39.1232C115.015 39.053 114.875 38.9212 114.787 38.7279C114.717 38.5521 114.681 38.1655 114.681 37.568C114.699 36.9881 114.778 36.127 114.919 34.9848C115.13 33.1572 115.481 30.7497 115.973 27.7623C116.254 26.128 116.544 24.5376 116.843 22.9912C116.298 23.8698 115.718 24.7485 115.103 25.6271C113.943 27.3141 112.933 27.9204 112.072 27.4459C111.51 27.0418 111.237 26.3301 111.255 25.3108C111.272 24.274 111.527 23.2284 112.019 22.174C112.599 20.9439 113.284 20.0389 114.075 19.459C114.866 18.8791 115.569 18.6858 116.184 18.8791C116.799 19.0548 117.15 19.5117 117.238 20.2498C117.326 20.1092 117.405 19.9686 117.476 19.828C118.407 15.4172 119.338 11.8762 120.27 9.2051C121.219 6.51642 121.992 5.07543 122.589 4.88213C122.835 4.79426 123.046 4.84698 123.222 5.04029ZM114.286 25.0472C115.112 23.8523 115.868 22.6573 116.553 21.4623C116.289 21.3745 116.184 21.1987 116.237 20.9351C116.307 20.2849 116.193 19.9159 115.894 19.828C115.859 19.828 115.806 19.828 115.736 19.828C115.367 19.828 114.91 20.074 114.365 20.5661C113.838 21.0406 113.363 21.7259 112.942 22.6221C112.661 23.2021 112.467 23.7995 112.362 24.4146C112.274 25.0121 112.256 25.5041 112.309 25.8907C112.362 26.2598 112.458 26.4794 112.599 26.5497C112.652 26.5849 112.731 26.5849 112.836 26.5497C112.959 26.497 113.153 26.3476 113.416 26.1016C113.68 25.838 113.97 25.4866 114.286 25.0472ZM121.561 9.57414C121.913 8.50218 122.168 7.58838 122.326 6.83274C121.465 8.64277 120.542 11.4632 119.558 15.2942C120.05 14.0992 120.621 12.4913 121.271 10.4704C121.394 10.0838 121.491 9.78501 121.561 9.57414Z" fill="white"/>
  <path d="M104.726 21.1722C104.867 21.1195 104.999 21.1283 105.122 21.1986C105.245 21.2513 105.324 21.348 105.359 21.4885C105.412 21.6116 105.412 21.7346 105.359 21.8576C103.479 25.7412 101.8 27.6831 100.324 27.6831C100.236 27.6831 100.14 27.6743 100.034 27.6567C98.8569 27.4282 98.1276 25.8467 97.8465 22.912C96.9854 24.0718 96.221 25.0207 95.5532 25.7588C94.9557 26.3914 94.4461 26.6111 94.0243 26.4178C93.6026 26.2596 93.4005 25.8027 93.418 25.0471C93.418 24.4145 93.5586 23.6588 93.8398 22.7802C94.121 21.9015 94.5339 21.0492 95.0787 20.2233C95.6235 19.3974 96.2122 18.879 96.8448 18.6681C97.7762 18.3342 98.6372 18.6417 99.428 19.5907C99.5159 19.6961 99.551 19.8191 99.5335 19.9597C99.5335 20.1003 99.4808 20.2145 99.3753 20.3024C99.2699 20.3902 99.1469 20.4342 99.0063 20.4342C98.8657 20.4166 98.7515 20.3551 98.6636 20.2496C98.0485 19.5116 97.4247 19.371 96.7921 19.8279C96.0716 20.3375 95.4653 21.2601 94.9733 22.5957C94.4988 23.9136 94.3143 24.8538 94.4197 25.4161C94.5251 25.3283 94.6482 25.214 94.7887 25.0735C95.4917 24.3178 96.3527 23.2371 97.372 21.8312C97.6004 21.5149 97.7586 21.2952 97.8465 21.1722C97.987 20.9965 98.1716 20.9438 98.4 21.0141C98.6285 21.0668 98.7515 21.2162 98.769 21.4622C98.8042 22.3233 98.8745 23.0877 98.9799 23.7555C99.0854 24.4233 99.1908 24.9329 99.2962 25.2843C99.4017 25.6182 99.5247 25.8994 99.6653 26.1278C99.8059 26.3563 99.9113 26.5057 99.9816 26.576C100.069 26.6287 100.157 26.655 100.245 26.655C100.491 26.7078 100.799 26.5935 101.168 26.3124C101.554 26.0136 102.038 25.4513 102.618 24.6253C103.215 23.7818 103.821 22.7187 104.436 21.4358C104.507 21.2952 104.603 21.2074 104.726 21.1722Z" fill="white"/>
  <path d="M94.7382 20.9877C94.8787 20.9525 95.0105 20.9701 95.1335 21.0404C95.2566 21.1107 95.3269 21.2161 95.3444 21.3567C95.3796 21.4973 95.362 21.6291 95.2917 21.7521C94.7997 22.5253 94.2022 23.3337 93.4993 24.1772C92.8139 25.0031 92.0319 25.75 91.1532 26.4178C90.2922 27.0855 89.5629 27.4194 88.9654 27.4194C88.7545 27.4194 88.57 27.3843 88.4118 27.314C87.2345 26.8044 87.1114 24.7395 88.0428 21.1195C88.078 20.9789 88.157 20.8735 88.2801 20.8032C88.4031 20.7329 88.5261 20.7153 88.6491 20.7505C88.7897 20.7856 88.8951 20.8647 88.9654 20.9877C89.0357 21.1107 89.0533 21.2337 89.0181 21.3567C88.8072 22.2002 88.6491 22.9471 88.5437 23.5973C88.4558 24.2299 88.4118 24.7132 88.4118 25.0471C88.4294 25.381 88.4646 25.6621 88.5173 25.8906C88.5876 26.1015 88.6403 26.2333 88.6755 26.286C88.7282 26.3211 88.7721 26.3475 88.8072 26.3651C89.2641 26.5584 90.0901 26.1015 91.2851 24.9944C92.4976 23.8873 93.5432 22.622 94.4218 21.1986C94.5097 21.0931 94.6151 21.0228 94.7382 20.9877ZM88.9127 18.9316C88.4031 18.8965 88.2449 18.6856 88.4382 18.299C88.6139 17.9827 90.8793 15.685 91.1605 15.5795C91.5998 15.439 91.8634 15.5532 91.9513 15.9222C92.0391 16.2737 89.8704 18.6241 89.519 18.7998C89.3432 18.8877 89.1411 18.9316 88.9127 18.9316Z" fill="white"/>
  <path d="M88.2113 21.0668C88.3519 21.0141 88.4837 21.0229 88.6067 21.0931C88.7297 21.1459 88.8176 21.2425 88.8703 21.3831C88.923 21.5061 88.9142 21.6291 88.8439 21.7521C88.3695 22.7714 87.8335 23.817 87.236 24.8889C86.6385 25.9609 85.9795 27.0416 85.259 28.1312C84.5561 29.2383 83.8532 30.1345 83.1503 30.8198C82.4473 31.5228 81.8498 31.8742 81.3578 31.8742C81.2348 31.8742 81.1206 31.8479 81.0151 31.7951C80.2946 31.514 80.0662 30.4244 80.3298 28.5265C80.5758 26.7517 81.226 24.2387 82.2804 20.9877C82.2628 20.9877 82.2452 20.9965 82.2277 21.0141C82.2277 21.0141 82.2189 21.0141 82.2013 21.0141C81.8147 21.2777 81.4896 21.4797 81.226 21.6203C80.98 21.7609 80.6373 21.9191 80.198 22.0948C79.7762 22.2705 79.3721 22.3496 78.9854 22.332C78.5988 22.3145 78.2386 22.1915 77.9047 21.963C77.2369 21.4885 76.8942 20.8295 76.8767 19.986C76.8591 19.1425 77.1754 18.2199 77.8256 17.2183C78.2298 16.5856 78.7131 16.0321 79.2754 15.5576C79.8553 15.0832 80.3474 14.9777 80.7515 15.2413C80.9976 15.3819 81.1381 15.6103 81.1733 15.9267C81.226 16.243 81.0766 16.858 80.7252 17.7718C80.3737 18.6681 79.785 19.8455 78.9591 21.304C79.5038 21.3743 80.4001 20.9965 81.6478 20.1706C81.8762 20.0124 82.0432 19.907 82.1486 19.8542C82.2716 19.7839 82.4034 19.7137 82.544 19.6434C82.7021 19.5731 82.8339 19.5467 82.9394 19.5643C83.0448 19.5819 83.1503 19.6258 83.2557 19.6961C83.5193 19.907 83.5632 20.276 83.3875 20.8032C81.6302 26.2508 80.9361 29.5546 81.3051 30.7144C81.3402 30.7847 81.3666 30.8374 81.3842 30.8726C81.5248 30.8901 81.7356 30.7759 82.0168 30.5299C82.3155 30.2839 82.6758 29.8972 83.0975 29.3701C83.5369 28.8429 84.0026 28.2102 84.4946 27.4722C85.0042 26.7341 85.5578 25.8291 86.1553 24.7571C86.7703 23.6852 87.359 22.5429 87.9214 21.3304C87.9916 21.1898 88.0883 21.1019 88.2113 21.0668ZM77.9838 19.2743C77.8256 19.8894 77.8608 20.3814 78.0892 20.7505C79.3721 18.5187 80.0574 17.0074 80.1453 16.2166C79.9344 16.3396 79.6884 16.5417 79.4072 16.8229C79.1436 17.1041 78.8624 17.4731 78.5637 17.93C78.2825 18.3693 78.0892 18.8174 77.9838 19.2743Z" fill="white"/>
  <path d="M77.9058 21.0933C78.0464 21.0582 78.1694 21.0846 78.2748 21.1724C78.3978 21.2427 78.4681 21.3481 78.4857 21.4887C78.5033 21.6293 78.4769 21.7523 78.4066 21.8578C76.4209 24.6343 74.6108 26.6025 72.9765 27.7623C72.3263 28.2192 71.6849 28.4477 71.0523 28.4477C70.5602 28.4477 70.1297 28.3159 69.7607 28.0523C69.5498 27.8941 69.3653 27.6832 69.2071 27.4196C69.0314 27.156 68.882 26.787 68.759 26.3125C68.636 25.8381 68.6184 25.2142 68.7063 24.441C68.7766 23.6678 68.9699 22.7891 69.2862 21.805V21.7787C69.7782 20.1795 70.3757 18.9143 71.0786 17.9829C71.7816 17.0515 72.4142 16.5771 72.9765 16.5595C73.3807 16.5419 73.6443 16.7176 73.7673 17.0867C73.9606 17.5963 73.7322 18.3168 73.082 19.2482C72.4318 20.1795 71.474 21.1812 70.2088 22.2532C69.9979 22.9385 69.8485 23.5711 69.7607 24.1511C69.6728 24.731 69.6377 25.1967 69.6552 25.5481C69.6904 25.882 69.7519 26.1807 69.8397 26.4443C69.9452 26.6904 70.033 26.8661 70.1033 26.9715C70.1912 27.077 70.2791 27.1648 70.3669 27.2351C70.8941 27.6217 71.5707 27.5163 72.3966 26.9188C73.9431 25.8293 75.6652 23.949 77.5631 21.2779C77.651 21.1724 77.7652 21.1109 77.9058 21.0933ZM72.792 17.6666C72.177 18.0532 71.5707 18.8879 70.9732 20.1708C71.9924 19.1515 72.5987 18.3168 72.792 17.6666Z" fill="white"/>
  <path d="M70.2514 21.0404C70.392 21.058 70.4975 21.1283 70.5678 21.2513C70.6556 21.3567 70.682 21.4798 70.6468 21.6203C70.6117 21.7609 70.5414 21.8664 70.436 21.9367C67.3255 23.9576 64.7774 25.9697 62.7917 27.973C61.7549 34.1763 60.6214 39.211 59.3913 43.0771C57.9327 47.6285 56.5181 50.0975 55.1474 50.4841C55.0244 50.5193 54.8926 50.5368 54.752 50.5368C54.3478 50.5368 53.9964 50.3611 53.6976 50.0096C53.2056 49.377 52.942 48.3314 52.9068 46.8728C52.8541 45.4143 53.0826 43.6921 53.5922 41.7064C54.0842 39.7206 54.8047 37.8051 55.7537 35.96C57.4231 32.7792 59.4616 29.95 61.8691 27.4722C62.1327 25.8203 62.3963 24.0894 62.6599 22.2793C62.1151 23.1053 61.6055 23.7994 61.131 24.3617C60.3578 25.3107 59.6197 25.5743 58.9168 25.1525C58.3369 24.8011 58.0294 24.0718 57.9942 22.9647C57.9591 21.84 58.2139 20.6187 58.7587 19.3007C58.8114 19.1777 58.8992 19.0898 59.0223 19.0371C59.1628 18.9844 59.2946 18.9844 59.4177 19.0371C59.5407 19.0898 59.6285 19.1777 59.6812 19.3007C59.7515 19.4237 59.7603 19.5555 59.7076 19.6961C59.2331 20.9789 58.9959 22.0245 58.9959 22.8329C59.0135 23.6412 59.1628 24.1245 59.444 24.2827C59.6373 24.4057 59.9361 24.2212 60.3402 23.7291C61.2189 22.6747 62.1239 21.3392 63.0553 19.7224C63.1959 19.4764 63.3979 19.4061 63.6615 19.5116C63.9251 19.5994 64.0394 19.7752 64.0042 20.0388C63.7055 22.2354 63.3979 24.3178 63.0816 26.286C64.8917 24.599 67.1586 22.868 69.8824 21.0931C69.9879 21.0229 70.1109 21.0053 70.2514 21.0404ZM58.416 42.7871C59.5407 39.2725 60.5863 34.7826 61.5528 29.3173C59.6549 31.4261 58.0206 33.7985 56.6499 36.4344C55.8943 37.8754 55.2968 39.3428 54.8574 40.8365C54.4005 42.3478 54.1194 43.6658 54.0139 44.7904C53.9085 45.9151 53.8997 46.8816 53.9876 47.69C54.0754 48.4983 54.2424 49.0519 54.4884 49.3506C54.6114 49.4912 54.7344 49.5439 54.8574 49.5088C54.9453 49.4912 55.042 49.4473 55.1474 49.377C55.2528 49.3067 55.4286 49.1222 55.6746 48.8234C55.9206 48.5423 56.1666 48.1732 56.4127 47.7163C56.6587 47.277 56.9662 46.6268 57.3352 45.7657C57.7043 44.9047 58.0645 43.9118 58.416 42.7871Z" fill="white"/>
  <path d="M58.4066 21.1987C58.5472 21.1812 58.6702 21.2163 58.7757 21.3042C58.8987 21.392 58.969 21.5063 58.9865 21.6468C59.0041 21.7874 58.969 21.9104 58.8811 22.0159C58.1606 22.9473 57.2995 23.6765 56.2979 24.2037C55.2962 24.7309 54.356 24.8979 53.4774 24.7046C53.2314 25.302 52.8887 25.7765 52.4494 26.128C52.01 26.4619 51.5531 26.6288 51.0787 26.6288H51.0523C50.5778 26.6112 50.1561 26.4531 49.787 26.1543C49.4356 25.838 49.1896 25.4075 49.049 24.8627C48.8205 24.0016 48.8645 23.1845 49.1808 22.4113C49.4795 21.6205 49.9188 21.0406 50.4988 20.6715C50.6218 20.5837 50.7624 20.5661 50.9205 20.6188C51.0787 20.2322 51.2983 19.9335 51.5795 19.7226C51.8782 19.5117 52.1858 19.4326 52.5021 19.4854C52.6778 19.5205 52.836 19.5996 52.9766 19.7226C53.1347 19.828 53.2841 20.0038 53.4247 20.2498C53.5828 20.4958 53.6971 20.8736 53.7673 21.3833C53.8376 21.8929 53.8552 22.4991 53.8201 23.2021C53.8025 23.3778 53.7761 23.5535 53.741 23.7293C54.4088 23.8698 55.1468 23.7029 55.9552 23.2284C56.7811 22.754 57.484 22.1389 58.064 21.3833C58.1518 21.2778 58.266 21.2163 58.4066 21.1987ZM51.0787 25.6008C51.3247 25.6008 51.5795 25.4866 51.8431 25.2581C52.1243 25.0297 52.3527 24.7221 52.5284 24.3355C51.3862 23.7029 50.7887 22.8418 50.736 21.7523C50.3845 22.0862 50.1385 22.5343 49.9979 23.0966C49.8749 23.659 49.8837 24.151 50.0243 24.5728C50.2176 25.2581 50.569 25.6008 51.0787 25.6008ZM52.792 23.1493C52.8272 22.7276 52.8272 22.3673 52.792 22.0686C52.7745 21.7523 52.7481 21.4975 52.713 21.3042C52.6778 21.1109 52.6339 20.9527 52.5812 20.8297C52.5284 20.7067 52.4757 20.6188 52.423 20.5661C52.3879 20.5134 52.3615 20.487 52.3439 20.487H52.3176C52.2473 20.487 52.1594 20.5485 52.054 20.6715C51.9485 20.777 51.8695 20.9264 51.8167 21.1197C51.7113 21.4887 51.7289 21.8665 51.8695 22.2531C52.01 22.6397 52.3176 22.9912 52.792 23.3075C52.792 23.2548 52.792 23.2021 52.792 23.1493Z" fill="white"/>
  <path d="M50.1411 21.0933C50.2817 21.1108 50.3871 21.1811 50.4574 21.3041C50.5453 21.4096 50.5716 21.5326 50.5365 21.6732C50.5013 21.8137 50.431 21.9192 50.3256 21.9895C47.2152 24.0104 44.6671 26.0225 42.6813 28.0258C41.6445 34.2115 40.5023 39.2462 39.2546 43.1299C37.8136 47.6813 36.4077 50.1503 35.037 50.5369C34.8965 50.5721 34.7647 50.5896 34.6416 50.5896C34.2375 50.5896 33.886 50.4051 33.5873 50.0361C33.0952 49.421 32.8316 48.3754 32.7965 46.8993C32.7438 45.4407 32.9722 43.7186 33.4818 41.7328C33.9739 39.7646 34.7032 37.8492 35.6697 35.9864C37.3215 32.8057 39.3424 29.9852 41.7324 27.525C42.1366 25.1351 42.5232 22.6045 42.8922 19.9334C42.9098 19.8104 42.9713 19.705 43.0767 19.6171C43.1822 19.5292 43.3052 19.4941 43.4458 19.5117C43.5863 19.5292 43.7006 19.5995 43.7884 19.7226C43.8763 19.828 43.9114 19.951 43.8939 20.0916C43.5951 22.2706 43.2876 24.3531 42.9713 26.3388C44.7813 24.6518 47.0482 22.9208 49.7721 21.146C49.8775 21.0757 50.0005 21.0581 50.1411 21.0933ZM38.3056 42.8136C39.4127 39.3517 40.4495 34.8705 41.4161 29.3702C39.5357 31.4789 37.919 33.8425 36.5659 36.4609C35.8103 37.9195 35.204 39.3956 34.7471 40.8893C34.2902 42.4006 34.009 43.7098 33.9036 44.8169C33.7981 45.9416 33.7894 46.9081 33.8772 47.7164C33.9651 48.5248 34.132 49.0871 34.3781 49.4035C34.5011 49.544 34.6241 49.5968 34.7471 49.5616C34.835 49.5265 34.9316 49.4738 35.037 49.4035C35.1425 49.3332 35.3182 49.1487 35.5642 48.8499C35.8103 48.5687 36.0563 48.2085 36.3023 47.7692C36.5483 47.3298 36.8559 46.6708 37.2249 45.7922C37.5764 44.9311 37.9366 43.9382 38.3056 42.8136ZM43.5776 16.0849C43.0679 16.0674 42.9098 15.874 43.1031 15.505C43.2612 15.1887 43.4985 14.9778 43.8148 14.8724C44.2365 14.7318 44.4914 14.8372 44.5792 15.1887C44.6671 15.5402 44.5353 15.8038 44.1838 15.9795C44.0081 16.0674 43.806 16.1025 43.5776 16.0849Z" fill="white"/>
  <path d="M34.9402 21.1722C35.0808 21.1195 35.2126 21.1283 35.3356 21.1986C35.4586 21.2513 35.5377 21.348 35.5728 21.4885C35.6255 21.6116 35.6255 21.7346 35.5728 21.8576C33.6925 25.7412 32.0143 27.6831 30.5381 27.6831C30.4503 27.6831 30.3536 27.6743 30.2482 27.6567C29.0708 27.4282 28.3415 25.8467 28.0603 22.912C27.1992 24.0718 26.4348 25.0207 25.767 25.7588C25.1696 26.3914 24.6599 26.6111 24.2382 26.4178C23.8164 26.2596 23.6143 25.8027 23.6319 25.0471C23.6319 24.4145 23.7725 23.6588 24.0537 22.7802C24.3348 21.9015 24.7478 21.0492 25.2926 20.2233C25.8373 19.3974 26.426 18.879 27.0587 18.6681C27.99 18.3342 28.8511 18.6417 29.6419 19.5907C29.7298 19.6961 29.7649 19.8191 29.7473 19.9597C29.7473 20.1003 29.6946 20.2145 29.5892 20.3024C29.4837 20.3902 29.3607 20.4342 29.2201 20.4342C29.0796 20.4166 28.9653 20.3551 28.8775 20.2496C28.2624 19.5116 27.6386 19.371 27.0059 19.8279C26.2854 20.3375 25.6792 21.2601 25.1871 22.5957C24.7127 23.9136 24.5281 24.8538 24.6336 25.4161C24.739 25.3283 24.862 25.214 25.0026 25.0735C25.7055 24.3178 26.5666 23.2371 27.5859 21.8312C27.8143 21.5149 27.9725 21.2952 28.0603 21.1722C28.2009 20.9965 28.3854 20.9438 28.6139 21.0141C28.8423 21.0668 28.9653 21.2162 28.9829 21.4622C29.0181 22.3233 29.0884 23.0877 29.1938 23.7555C29.2992 24.4233 29.4047 24.9329 29.5101 25.2843C29.6155 25.6182 29.7386 25.8994 29.8791 26.1278C30.0197 26.3563 30.1252 26.5057 30.1955 26.576C30.2833 26.6287 30.3712 26.655 30.459 26.655C30.7051 26.7078 31.0126 26.5935 31.3816 26.3124C31.7682 26.0136 32.2515 25.4513 32.8314 24.6253C33.4289 23.7818 34.0352 22.7187 34.6502 21.4358C34.7205 21.2952 34.8172 21.2074 34.9402 21.1722Z" fill="white"/>
  <path d="M27.2235 31.1625C27.3641 31.1625 27.4783 31.2064 27.5662 31.2943C27.6716 31.3997 27.7243 31.5227 27.7243 31.6633C27.7243 31.7512 27.698 31.8303 27.6453 31.9005C27.5926 31.9884 27.5223 32.0499 27.4344 32.0851C27.3641 32.1378 27.285 32.1641 27.1972 32.1641C26.5645 32.1466 25.844 32.2432 25.0357 32.4541C24.2449 32.6825 23.3399 33.0428 22.3206 33.5348C21.3014 34.0269 20.4579 34.4486 19.7901 34.8001C19.1223 35.1691 18.1997 35.6788 17.0224 36.329C15.6868 37.0846 14.6851 37.6382 14.0174 37.9896C13.3496 38.3587 12.5939 38.7101 11.7504 39.044C10.9069 39.3779 10.2128 39.5448 9.66802 39.5448C9.19355 39.5448 8.79816 39.4306 8.48184 39.2022C7.67348 38.5871 7.50654 37.2428 7.98101 35.1691C9.29899 29.3876 11.1266 22.4111 13.4638 14.2396C14.0261 12.2714 14.5358 10.5229 14.9927 8.99405C15.4671 7.4652 15.8625 6.20872 16.1788 5.22463C16.5127 4.22296 16.8203 3.38824 17.1014 2.72047C17.3826 2.03512 17.5935 1.5255 17.7341 1.19161C17.8922 0.857722 18.0504 0.611699 18.2085 0.45354C18.3667 0.295384 18.4809 0.216305 18.5512 0.216305C18.6215 0.198732 18.7182 0.198732 18.8412 0.216305C19.1575 0.251451 19.3508 0.497473 19.4211 0.954373C19.4914 1.41127 19.4826 2.1142 19.3947 3.06314C19.3771 3.20373 19.3156 3.31795 19.2102 3.40582C19.1048 3.49368 18.9817 3.53761 18.8412 3.53761C18.7006 3.52004 18.5776 3.45853 18.4721 3.3531C18.3843 3.24766 18.3491 3.12465 18.3667 2.98406C18.4018 2.66775 18.4282 2.37779 18.4458 2.1142C17.532 4.20539 16.1261 8.59866 14.2282 15.294C11.9789 23.2194 10.2304 29.9236 8.98267 35.4064C8.59607 37.0407 8.63121 38.0335 9.08811 38.385C9.21112 38.4729 9.36928 38.5256 9.56258 38.5432C9.75589 38.5607 9.98434 38.5344 10.2479 38.4641C10.5291 38.3938 10.8015 38.3147 11.0651 38.2269C11.3287 38.1566 11.6626 38.0248 12.0667 37.8315C12.4709 37.6382 12.8136 37.4712 13.0948 37.3306C13.3759 37.19 13.7538 36.9879 14.2282 36.7244C14.7203 36.4608 15.0981 36.2499 15.3617 36.0917C15.6253 35.9511 16.0119 35.7403 16.5215 35.4591C17.5056 34.8968 18.2525 34.475 18.7621 34.1938C19.2893 33.9127 20.0098 33.5348 20.9236 33.0604C21.8549 32.6035 22.6282 32.252 23.2432 32.006C23.8583 31.7775 24.5261 31.5754 25.2465 31.3997C25.9846 31.224 26.6436 31.1449 27.2235 31.1625Z" fill="white"/>
  <path d="M4.05411 19.459C4.14197 19.4942 4.21226 19.5469 4.26498 19.6172C4.33528 19.6699 4.37921 19.7402 4.39678 19.8281C4.43193 19.9159 4.44071 20.0038 4.42314 20.0917C4.08925 21.4272 3.68507 23.1757 3.2106 25.3372C2.47253 28.7991 1.73446 31.8305 0.996393 34.4313C0.926101 34.6773 0.759157 34.8003 0.495561 34.8003C0.460414 34.8003 0.416482 34.7915 0.363762 34.774C0.223178 34.7388 0.11774 34.6597 0.0474472 34.5367C-0.00527195 34.4137 -0.0140584 34.2819 0.0210877 34.1413C0.759157 31.5581 1.49723 28.5531 2.23529 25.1263C2.70977 22.9473 3.11395 21.1812 3.44784 19.8281C3.46541 19.7051 3.5357 19.6084 3.65871 19.5381C3.78172 19.4502 3.91352 19.4239 4.05411 19.459ZM4.7131 17.0867C4.92397 17.1042 5.04698 17.1921 5.08213 17.3503C5.11728 17.4908 5.08213 17.6402 4.97669 17.7984C4.87125 17.9565 4.73946 18.062 4.5813 18.1147C4.19469 18.2377 3.95745 18.1411 3.86959 17.8247C3.78172 17.5084 3.90474 17.28 4.23862 17.1394C4.36164 17.0867 4.51979 17.0691 4.7131 17.0867Z" fill="white"/>
</svg>