            <svg
              xmlns="http://www.w3.org/2000/svg"
              width="40"
              height="41"
              viewBox="0 0 40 41"
              fill="none"
            >
              <path
                d="M18.333 35.5V32.1667H31.6663V20.3333C31.6663 17.0833 30.5344 14.3264 28.2705 12.0625C26.0066 9.79861 23.2497 8.66667 19.9997 8.66667C16.7497 8.66667 13.9927 9.79861 11.7288 12.0625C9.46495 14.3264 8.33301 17.0833 8.33301 20.3333V30.5H6.66634C5.74967 30.5 4.96495 30.1736 4.31217 29.5208C3.6594 28.8681 3.33301 28.0833 3.33301 27.1667V23.8333C3.33301 23.25 3.47884 22.7014 3.77051 22.1875C4.06217 21.6736 4.4719 21.2639 4.99967 20.9583L5.12467 18.75C5.3469 16.8611 5.89551 15.1111 6.77051 13.5C7.64551 11.8889 8.74273 10.4861 10.0622 9.29167C11.3816 8.09722 12.8955 7.16667 14.6038 6.5C16.3122 5.83333 18.1108 5.5 19.9997 5.5C21.8886 5.5 23.6802 5.83333 25.3747 6.5C27.0691 7.16667 28.583 8.09028 29.9163 9.27083C31.2497 10.4514 32.3469 11.8472 33.208 13.4583C34.0691 15.0694 34.6247 16.8194 34.8747 18.7083L34.9997 20.875C35.5275 21.125 35.9372 21.5 36.2288 22C36.5205 22.5 36.6663 23.0278 36.6663 23.5833V27.4167C36.6663 27.9722 36.5205 28.5 36.2288 29C35.9372 29.5 35.5275 29.875 34.9997 30.125V32.1667C34.9997 33.0833 34.6733 33.8681 34.0205 34.5208C33.3677 35.1736 32.583 35.5 31.6663 35.5H18.333ZM14.9997 23.8333C14.5275 23.8333 14.1316 23.6736 13.8122 23.3542C13.4927 23.0347 13.333 22.6389 13.333 22.1667C13.333 21.6944 13.4927 21.2986 13.8122 20.9792C14.1316 20.6597 14.5275 20.5 14.9997 20.5C15.4719 20.5 15.8677 20.6597 16.1872 20.9792C16.5066 21.2986 16.6663 21.6944 16.6663 22.1667C16.6663 22.6389 16.5066 23.0347 16.1872 23.3542C15.8677 23.6736 15.4719 23.8333 14.9997 23.8333ZM24.9997 23.8333C24.5275 23.8333 24.1316 23.6736 23.8122 23.3542C23.4927 23.0347 23.333 22.6389 23.333 22.1667C23.333 21.6944 23.4927 21.2986 23.8122 20.9792C24.1316 20.6597 24.5275 20.5 24.9997 20.5C25.4719 20.5 25.8677 20.6597 26.1872 20.9792C26.5066 21.2986 26.6663 21.6944 26.6663 22.1667C26.6663 22.6389 26.5066 23.0347 26.1872 23.3542C25.8677 23.6736 25.4719 23.8333 24.9997 23.8333ZM10.0413 21.25C9.8469 18.3056 10.7358 15.7778 12.708 13.6667C14.6802 11.5556 17.1386 10.5 20.083 10.5C22.5552 10.5 24.7288 11.2847 26.6038 12.8542C28.4788 14.4236 29.6108 16.4306 29.9997 18.875C27.4719 18.8472 25.1455 18.1667 23.0205 16.8333C20.8955 15.5 19.2636 13.6944 18.1247 11.4167C17.6802 13.6389 16.7427 15.6181 15.3122 17.3542C13.8816 19.0903 12.1247 20.3889 10.0413 21.25Z"
                fill="black"
              />
            </svg>